# xmcd
#
# Track frame offsets:
#	150
#	12544
#	31282
#	45559
#	56333
#	69668
#	81659
#	93955
#	108781
#	120578
#	136403
#	150976
#	171256
#	189406
#	198421
#	212177
#	226051
#	239302
#	262419
#	276894
#	292008
#	307874
#	328536
#	348256
#
# Disc length: 4834 seconds
#
# Revision: 0
# Processed by: cddbd v1.5.2PL0 Copyright (c) Steve Scherf et al.
# Submitted via: EasyCDDAExtractor 10.0.5.1
#
DISCID=5812e018
DTITLE=Willie Nelson - Atlantic Sessions  CD # 1
DYEAR=2007
DGENRE=Country
TTITLE0=Shotgun Willie
TTITLE1=Whiskey River
TTITLE2=Sad Songs and Waltzes
TTITLE3=Local Memory
TTITLE4=Slow Down Old World
TTITLE5=Stay All Night (Stay A Little
TTITLE6=Devil in A Sleeping Bag
TTITLE7=She's Not for You
TTITLE8=Bubbles in My Beer
TTITLE9=You Look Like the Devil
TTITLE10=So Much to Do
TTITLE11=A Song for You
TTITLE12=I Gotta Have Something I Ain't
TTITLE13=I'm So Ashamed (Outtake) (Bonu
TTITLE14=My Cricket and Me (Solo Outtake)
TTITLE15=Both Ends of the Candle (Outta
TTITLE16=Slowdown Old World (Alternate
TTITLE17=Under the Double Eagle (Outtak
TTITLE18=So Much to Do (Alternate Versi
TTITLE19=My Cricket and Me (Band Outtake)
TTITLE20=Save Your Tears (Outtake) (Bon
TTITLE21=A Song for You (Alternate Vers
TTITLE22=Whiskey River (Alternate Versi
TTITLE23=I Drank All of Our Precious Love Away
EXTD=
EXTT0=
EXTT1=
EXTT2=
EXTT3=
EXTT4=
EXTT5=
EXTT6=
EXTT7=
EXTT8=
EXTT9=
EXTT10=
EXTT11=
EXTT12=
EXTT13=
EXTT14=
EXTT15=
EXTT16=
EXTT17=
EXTT18=
EXTT19=
EXTT20=
EXTT21=
EXTT22=
EXTT23=
PLAYORDER=
